%TF.GenerationSoftware,KiCad,Pcbnew,(5.1.6)-1*%
%TF.CreationDate,2020-11-23T19:54:07+09:00*%
%TF.ProjectId,HARP-Motor-Ctrl-Board,48415250-2d4d-46f7-946f-722d4374726c,rev?*%
%TF.SameCoordinates,Original*%
%TF.FileFunction,Soldermask,Top*%
%TF.FilePolarity,Negative*%
%FSLAX46Y46*%
G04 Gerber Fmt 4.6, Leading zero omitted, Abs format (unit mm)*
G04 Created by KiCad (PCBNEW (5.1.6)-1) date 2020-11-23 19:54:07*
%MOMM*%
%LPD*%
G01*
G04 APERTURE LIST*
%ADD10C,3.300000*%
%ADD11R,1.500000X0.700000*%
%ADD12R,1.575000X0.550000*%
%ADD13O,1.850000X1.300000*%
%ADD14O,2.050000X1.800000*%
%ADD15R,1.800000X1.800000*%
%ADD16O,1.800000X1.800000*%
G04 APERTURE END LIST*
D10*
%TO.C,REF\u002A\u002A*%
X95000000Y-109000000D03*
%TD*%
%TO.C,REF\u002A\u002A*%
X95000000Y-58000000D03*
%TD*%
%TO.C,C3*%
G36*
G01*
X88466000Y-78494500D02*
X88466000Y-77969500D01*
G75*
G02*
X88728500Y-77707000I262500J0D01*
G01*
X89353500Y-77707000D01*
G75*
G02*
X89616000Y-77969500I0J-262500D01*
G01*
X89616000Y-78494500D01*
G75*
G02*
X89353500Y-78757000I-262500J0D01*
G01*
X88728500Y-78757000D01*
G75*
G02*
X88466000Y-78494500I0J262500D01*
G01*
G37*
G36*
G01*
X90216000Y-78494500D02*
X90216000Y-77969500D01*
G75*
G02*
X90478500Y-77707000I262500J0D01*
G01*
X91103500Y-77707000D01*
G75*
G02*
X91366000Y-77969500I0J-262500D01*
G01*
X91366000Y-78494500D01*
G75*
G02*
X91103500Y-78757000I-262500J0D01*
G01*
X90478500Y-78757000D01*
G75*
G02*
X90216000Y-78494500I0J262500D01*
G01*
G37*
%TD*%
D11*
%TO.C,IC1*%
X79650000Y-67450000D03*
X79650000Y-66500000D03*
X79650000Y-65550000D03*
X77350000Y-65550000D03*
X77350000Y-67450000D03*
%TD*%
%TO.C,IC2*%
X79650000Y-96450000D03*
X79650000Y-95500000D03*
X79650000Y-94550000D03*
X77350000Y-94550000D03*
X77350000Y-96450000D03*
%TD*%
D12*
%TO.C,IC3*%
X85562000Y-80075000D03*
X85562000Y-80725000D03*
X85562000Y-81375000D03*
X85562000Y-82025000D03*
X85562000Y-82675000D03*
X85562000Y-83325000D03*
X85562000Y-83975000D03*
X85562000Y-84625000D03*
X85562000Y-85275000D03*
X85562000Y-85925000D03*
X91438000Y-85925000D03*
X91438000Y-85275000D03*
X91438000Y-84625000D03*
X91438000Y-83975000D03*
X91438000Y-83325000D03*
X91438000Y-82675000D03*
X91438000Y-82025000D03*
X91438000Y-81375000D03*
X91438000Y-80725000D03*
X91438000Y-80075000D03*
%TD*%
D11*
%TO.C,IC4*%
X77350000Y-81950000D03*
X77350000Y-80050000D03*
X79650000Y-80050000D03*
X79650000Y-81000000D03*
X79650000Y-81950000D03*
%TD*%
%TO.C,IC5*%
X77350000Y-110950000D03*
X77350000Y-109050000D03*
X79650000Y-109050000D03*
X79650000Y-110000000D03*
X79650000Y-110950000D03*
%TD*%
D13*
%TO.C,J1*%
X72000000Y-57500000D03*
X72000000Y-59500000D03*
X72000000Y-61500000D03*
X72000000Y-63500000D03*
G36*
G01*
X72654168Y-66150000D02*
X71345832Y-66150000D01*
G75*
G02*
X71075000Y-65879168I0J270832D01*
G01*
X71075000Y-65120832D01*
G75*
G02*
X71345832Y-64850000I270832J0D01*
G01*
X72654168Y-64850000D01*
G75*
G02*
X72925000Y-65120832I0J-270832D01*
G01*
X72925000Y-65879168D01*
G75*
G02*
X72654168Y-66150000I-270832J0D01*
G01*
G37*
%TD*%
%TO.C,J2*%
G36*
G01*
X93216294Y-75068000D02*
X91695706Y-75068000D01*
G75*
G02*
X91431000Y-74803294I0J264706D01*
G01*
X91431000Y-73532706D01*
G75*
G02*
X91695706Y-73268000I264706J0D01*
G01*
X93216294Y-73268000D01*
G75*
G02*
X93481000Y-73532706I0J-264706D01*
G01*
X93481000Y-74803294D01*
G75*
G02*
X93216294Y-75068000I-264706J0D01*
G01*
G37*
D14*
X92456000Y-71668000D03*
X92456000Y-69168000D03*
X92456000Y-66668000D03*
%TD*%
D15*
%TO.C,J3*%
X79248000Y-74168000D03*
D16*
X79248000Y-71628000D03*
%TD*%
%TO.C,J4*%
G36*
G01*
X72654168Y-80650000D02*
X71345832Y-80650000D01*
G75*
G02*
X71075000Y-80379168I0J270832D01*
G01*
X71075000Y-79620832D01*
G75*
G02*
X71345832Y-79350000I270832J0D01*
G01*
X72654168Y-79350000D01*
G75*
G02*
X72925000Y-79620832I0J-270832D01*
G01*
X72925000Y-80379168D01*
G75*
G02*
X72654168Y-80650000I-270832J0D01*
G01*
G37*
D13*
X72000000Y-78000000D03*
X72000000Y-76000000D03*
X72000000Y-74000000D03*
X72000000Y-72000000D03*
%TD*%
%TO.C,J5*%
G36*
G01*
X85091706Y-62600000D02*
X86612294Y-62600000D01*
G75*
G02*
X86877000Y-62864706I0J-264706D01*
G01*
X86877000Y-64135294D01*
G75*
G02*
X86612294Y-64400000I-264706J0D01*
G01*
X85091706Y-64400000D01*
G75*
G02*
X84827000Y-64135294I0J264706D01*
G01*
X84827000Y-62864706D01*
G75*
G02*
X85091706Y-62600000I264706J0D01*
G01*
G37*
D14*
X85852000Y-66000000D03*
X85852000Y-68500000D03*
X85852000Y-71000000D03*
X85852000Y-73500000D03*
%TD*%
D13*
%TO.C,J6*%
X72000000Y-86500000D03*
X72000000Y-88500000D03*
X72000000Y-90500000D03*
X72000000Y-92500000D03*
G36*
G01*
X72654168Y-95150000D02*
X71345832Y-95150000D01*
G75*
G02*
X71075000Y-94879168I0J270832D01*
G01*
X71075000Y-94120832D01*
G75*
G02*
X71345832Y-93850000I270832J0D01*
G01*
X72654168Y-93850000D01*
G75*
G02*
X72925000Y-94120832I0J-270832D01*
G01*
X72925000Y-94879168D01*
G75*
G02*
X72654168Y-95150000I-270832J0D01*
G01*
G37*
%TD*%
%TO.C,J7*%
G36*
G01*
X72654168Y-109650000D02*
X71345832Y-109650000D01*
G75*
G02*
X71075000Y-109379168I0J270832D01*
G01*
X71075000Y-108620832D01*
G75*
G02*
X71345832Y-108350000I270832J0D01*
G01*
X72654168Y-108350000D01*
G75*
G02*
X72925000Y-108620832I0J-270832D01*
G01*
X72925000Y-109379168D01*
G75*
G02*
X72654168Y-109650000I-270832J0D01*
G01*
G37*
X72000000Y-107000000D03*
X72000000Y-105000000D03*
X72000000Y-103000000D03*
X72000000Y-101000000D03*
%TD*%
%TO.C,R1*%
G36*
G01*
X86111000Y-77442750D02*
X86111000Y-78005250D01*
G75*
G02*
X85867250Y-78249000I-243750J0D01*
G01*
X85379750Y-78249000D01*
G75*
G02*
X85136000Y-78005250I0J243750D01*
G01*
X85136000Y-77442750D01*
G75*
G02*
X85379750Y-77199000I243750J0D01*
G01*
X85867250Y-77199000D01*
G75*
G02*
X86111000Y-77442750I0J-243750D01*
G01*
G37*
G36*
G01*
X84536000Y-77442750D02*
X84536000Y-78005250D01*
G75*
G02*
X84292250Y-78249000I-243750J0D01*
G01*
X83804750Y-78249000D01*
G75*
G02*
X83561000Y-78005250I0J243750D01*
G01*
X83561000Y-77442750D01*
G75*
G02*
X83804750Y-77199000I243750J0D01*
G01*
X84292250Y-77199000D01*
G75*
G02*
X84536000Y-77442750I0J-243750D01*
G01*
G37*
%TD*%
M02*
