%TF.GenerationSoftware,KiCad,Pcbnew,(5.1.6)-1*%
%TF.CreationDate,2020-11-23T19:54:07+09:00*%
%TF.ProjectId,HARP-Motor-Ctrl-Board,48415250-2d4d-46f7-946f-722d4374726c,rev?*%
%TF.SameCoordinates,Original*%
%TF.FileFunction,Legend,Bot*%
%TF.FilePolarity,Positive*%
%FSLAX46Y46*%
G04 Gerber Fmt 4.6, Leading zero omitted, Abs format (unit mm)*
G04 Created by KiCad (PCBNEW (5.1.6)-1) date 2020-11-23 19:54:07*
%MOMM*%
%LPD*%
G01*
G04 APERTURE LIST*
%ADD10C,0.120000*%
%ADD11C,0.150000*%
G04 APERTURE END LIST*
D10*
%TO.C,C1*%
X81786000Y-80294267D02*
X81786000Y-79951733D01*
X82806000Y-80294267D02*
X82806000Y-79951733D01*
%TO.C,C2*%
X84330000Y-80294267D02*
X84330000Y-79951733D01*
X83310000Y-80294267D02*
X83310000Y-79951733D01*
%TO.C,C4*%
X89918000Y-82632733D02*
X89918000Y-82975267D01*
X88898000Y-82632733D02*
X88898000Y-82975267D01*
%TO.C,C5*%
X87374000Y-82632733D02*
X87374000Y-82975267D01*
X88394000Y-82632733D02*
X88394000Y-82975267D01*
%TO.C,C1*%
D11*
X82653142Y-82637333D02*
X82700761Y-82589714D01*
X82748380Y-82446857D01*
X82748380Y-82351619D01*
X82700761Y-82208761D01*
X82605523Y-82113523D01*
X82510285Y-82065904D01*
X82319809Y-82018285D01*
X82176952Y-82018285D01*
X81986476Y-82065904D01*
X81891238Y-82113523D01*
X81796000Y-82208761D01*
X81748380Y-82351619D01*
X81748380Y-82446857D01*
X81796000Y-82589714D01*
X81843619Y-82637333D01*
X82748380Y-83589714D02*
X82748380Y-83018285D01*
X82748380Y-83304000D02*
X81748380Y-83304000D01*
X81891238Y-83208761D01*
X81986476Y-83113523D01*
X82034095Y-83018285D01*
%TO.C,C2*%
X84177142Y-82637333D02*
X84224761Y-82589714D01*
X84272380Y-82446857D01*
X84272380Y-82351619D01*
X84224761Y-82208761D01*
X84129523Y-82113523D01*
X84034285Y-82065904D01*
X83843809Y-82018285D01*
X83700952Y-82018285D01*
X83510476Y-82065904D01*
X83415238Y-82113523D01*
X83320000Y-82208761D01*
X83272380Y-82351619D01*
X83272380Y-82446857D01*
X83320000Y-82589714D01*
X83367619Y-82637333D01*
X83367619Y-83018285D02*
X83320000Y-83065904D01*
X83272380Y-83161142D01*
X83272380Y-83399238D01*
X83320000Y-83494476D01*
X83367619Y-83542095D01*
X83462857Y-83589714D01*
X83558095Y-83589714D01*
X83700952Y-83542095D01*
X84272380Y-82970666D01*
X84272380Y-83589714D01*
%TO.C,C4*%
X89765142Y-80097333D02*
X89812761Y-80049714D01*
X89860380Y-79906857D01*
X89860380Y-79811619D01*
X89812761Y-79668761D01*
X89717523Y-79573523D01*
X89622285Y-79525904D01*
X89431809Y-79478285D01*
X89288952Y-79478285D01*
X89098476Y-79525904D01*
X89003238Y-79573523D01*
X88908000Y-79668761D01*
X88860380Y-79811619D01*
X88860380Y-79906857D01*
X88908000Y-80049714D01*
X88955619Y-80097333D01*
X89193714Y-80954476D02*
X89860380Y-80954476D01*
X88812761Y-80716380D02*
X89527047Y-80478285D01*
X89527047Y-81097333D01*
%TO.C,C5*%
X88241142Y-80097333D02*
X88288761Y-80049714D01*
X88336380Y-79906857D01*
X88336380Y-79811619D01*
X88288761Y-79668761D01*
X88193523Y-79573523D01*
X88098285Y-79525904D01*
X87907809Y-79478285D01*
X87764952Y-79478285D01*
X87574476Y-79525904D01*
X87479238Y-79573523D01*
X87384000Y-79668761D01*
X87336380Y-79811619D01*
X87336380Y-79906857D01*
X87384000Y-80049714D01*
X87431619Y-80097333D01*
X87336380Y-81002095D02*
X87336380Y-80525904D01*
X87812571Y-80478285D01*
X87764952Y-80525904D01*
X87717333Y-80621142D01*
X87717333Y-80859238D01*
X87764952Y-80954476D01*
X87812571Y-81002095D01*
X87907809Y-81049714D01*
X88145904Y-81049714D01*
X88241142Y-81002095D01*
X88288761Y-80954476D01*
X88336380Y-80859238D01*
X88336380Y-80621142D01*
X88288761Y-80525904D01*
X88241142Y-80478285D01*
%TD*%
M02*
