%TF.GenerationSoftware,KiCad,Pcbnew,(5.1.6)-1*%
%TF.CreationDate,2020-11-23T19:54:07+09:00*%
%TF.ProjectId,HARP-Motor-Ctrl-Board,48415250-2d4d-46f7-946f-722d4374726c,rev?*%
%TF.SameCoordinates,Original*%
%TF.FileFunction,Legend,Top*%
%TF.FilePolarity,Positive*%
%FSLAX46Y46*%
G04 Gerber Fmt 4.6, Leading zero omitted, Abs format (unit mm)*
G04 Created by KiCad (PCBNEW (5.1.6)-1) date 2020-11-23 19:54:07*
%MOMM*%
%LPD*%
G01*
G04 APERTURE LIST*
%ADD10C,0.120000*%
%ADD11C,0.200000*%
%ADD12C,0.150000*%
%ADD13C,0.254000*%
G04 APERTURE END LIST*
D10*
%TO.C,C3*%
X89744733Y-78742000D02*
X90087267Y-78742000D01*
X89744733Y-77722000D02*
X90087267Y-77722000D01*
D11*
%TO.C,IC1*%
X80350000Y-68000000D02*
X78950000Y-68000000D01*
X78600000Y-65050000D02*
X78600000Y-67950000D01*
X78400000Y-65050000D02*
X78600000Y-65050000D01*
X78400000Y-67950000D02*
X78400000Y-65050000D01*
X78600000Y-67950000D02*
X78400000Y-67950000D01*
%TO.C,IC2*%
X80350000Y-97000000D02*
X78950000Y-97000000D01*
X78600000Y-94050000D02*
X78600000Y-96950000D01*
X78400000Y-94050000D02*
X78600000Y-94050000D01*
X78400000Y-96950000D02*
X78400000Y-94050000D01*
X78600000Y-96950000D02*
X78400000Y-96950000D01*
%TO.C,IC3*%
X84825000Y-79500000D02*
X86300000Y-79500000D01*
X86650000Y-86250000D02*
X86650000Y-79750000D01*
X90350000Y-86250000D02*
X86650000Y-86250000D01*
X90350000Y-79750000D02*
X90350000Y-86250000D01*
X86650000Y-79750000D02*
X90350000Y-79750000D01*
%TO.C,IC4*%
X78600000Y-82450000D02*
X78400000Y-82450000D01*
X78400000Y-82450000D02*
X78400000Y-79550000D01*
X78400000Y-79550000D02*
X78600000Y-79550000D01*
X78600000Y-79550000D02*
X78600000Y-82450000D01*
X80350000Y-82500000D02*
X78950000Y-82500000D01*
%TO.C,IC5*%
X78600000Y-111450000D02*
X78400000Y-111450000D01*
X78400000Y-111450000D02*
X78400000Y-108550000D01*
X78400000Y-108550000D02*
X78600000Y-108550000D01*
X78600000Y-108550000D02*
X78600000Y-111450000D01*
X80350000Y-111500000D02*
X78950000Y-111500000D01*
D10*
%TO.C,J1*%
X70190000Y-67560000D02*
X74910000Y-67560000D01*
X74910000Y-67560000D02*
X74910000Y-55440000D01*
X74910000Y-55440000D02*
X70190000Y-55440000D01*
X70190000Y-55440000D02*
X70190000Y-67560000D01*
X70190000Y-65800000D02*
X69990000Y-65800000D01*
X69990000Y-65800000D02*
X69990000Y-66100000D01*
X69990000Y-66100000D02*
X70190000Y-66100000D01*
X70090000Y-65800000D02*
X70090000Y-66100000D01*
X70190000Y-65000000D02*
X70800000Y-65000000D01*
X70800000Y-65000000D02*
X70800000Y-66950000D01*
X70800000Y-66950000D02*
X74300000Y-66950000D01*
X74300000Y-66950000D02*
X74300000Y-56050000D01*
X74300000Y-56050000D02*
X70800000Y-56050000D01*
X70800000Y-56050000D02*
X70800000Y-58000000D01*
X70800000Y-58000000D02*
X70190000Y-58000000D01*
X71500000Y-67560000D02*
X71500000Y-66950000D01*
X72800000Y-67560000D02*
X72800000Y-66950000D01*
X71500000Y-55440000D02*
X71500000Y-56050000D01*
X72800000Y-55440000D02*
X72800000Y-56050000D01*
X74300000Y-64600000D02*
X73800000Y-64600000D01*
X73800000Y-64600000D02*
X73800000Y-64400000D01*
X73800000Y-64400000D02*
X74300000Y-64400000D01*
X74300000Y-64500000D02*
X73800000Y-64500000D01*
X74300000Y-62600000D02*
X73800000Y-62600000D01*
X73800000Y-62600000D02*
X73800000Y-62400000D01*
X73800000Y-62400000D02*
X74300000Y-62400000D01*
X74300000Y-62500000D02*
X73800000Y-62500000D01*
X74300000Y-60600000D02*
X73800000Y-60600000D01*
X73800000Y-60600000D02*
X73800000Y-60400000D01*
X73800000Y-60400000D02*
X74300000Y-60400000D01*
X74300000Y-60500000D02*
X73800000Y-60500000D01*
X74300000Y-58600000D02*
X73800000Y-58600000D01*
X73800000Y-58600000D02*
X73800000Y-58400000D01*
X73800000Y-58400000D02*
X74300000Y-58400000D01*
X74300000Y-58500000D02*
X73800000Y-58500000D01*
X69890000Y-66610000D02*
X69890000Y-67860000D01*
X69890000Y-67860000D02*
X71140000Y-67860000D01*
%TO.C,J2*%
X89706000Y-77018000D02*
X90956000Y-77018000D01*
X89706000Y-75768000D02*
X89706000Y-77018000D01*
X95206000Y-64868000D02*
X95206000Y-70418000D01*
X92256000Y-64868000D02*
X95206000Y-64868000D01*
X92256000Y-64118000D02*
X92256000Y-64868000D01*
X95206000Y-75968000D02*
X95206000Y-70418000D01*
X92256000Y-75968000D02*
X95206000Y-75968000D01*
X92256000Y-76718000D02*
X92256000Y-75968000D01*
X90006000Y-64118000D02*
X90006000Y-65918000D01*
X90756000Y-64118000D02*
X90006000Y-64118000D01*
X90756000Y-65918000D02*
X90756000Y-64118000D01*
X90006000Y-65918000D02*
X90756000Y-65918000D01*
X90006000Y-74918000D02*
X90006000Y-76718000D01*
X90756000Y-74918000D02*
X90006000Y-74918000D01*
X90756000Y-76718000D02*
X90756000Y-74918000D01*
X90006000Y-76718000D02*
X90756000Y-76718000D01*
X90006000Y-67418000D02*
X90006000Y-73418000D01*
X90756000Y-67418000D02*
X90006000Y-67418000D01*
X90756000Y-73418000D02*
X90756000Y-67418000D01*
X90006000Y-73418000D02*
X90756000Y-73418000D01*
X89996000Y-64108000D02*
X89996000Y-76728000D01*
X95966000Y-64108000D02*
X89996000Y-64108000D01*
X95966000Y-76728000D02*
X95966000Y-64108000D01*
X89996000Y-76728000D02*
X95966000Y-76728000D01*
%TO.C,J3*%
X80578000Y-75498000D02*
X79248000Y-75498000D01*
X80578000Y-74168000D02*
X80578000Y-75498000D01*
X80578000Y-72898000D02*
X77918000Y-72898000D01*
X77918000Y-72898000D02*
X77918000Y-70298000D01*
X80578000Y-72898000D02*
X80578000Y-70298000D01*
X80578000Y-70298000D02*
X77918000Y-70298000D01*
%TO.C,J4*%
X69890000Y-82360000D02*
X71140000Y-82360000D01*
X69890000Y-81110000D02*
X69890000Y-82360000D01*
X74300000Y-73000000D02*
X73800000Y-73000000D01*
X73800000Y-72900000D02*
X74300000Y-72900000D01*
X73800000Y-73100000D02*
X73800000Y-72900000D01*
X74300000Y-73100000D02*
X73800000Y-73100000D01*
X74300000Y-75000000D02*
X73800000Y-75000000D01*
X73800000Y-74900000D02*
X74300000Y-74900000D01*
X73800000Y-75100000D02*
X73800000Y-74900000D01*
X74300000Y-75100000D02*
X73800000Y-75100000D01*
X74300000Y-77000000D02*
X73800000Y-77000000D01*
X73800000Y-76900000D02*
X74300000Y-76900000D01*
X73800000Y-77100000D02*
X73800000Y-76900000D01*
X74300000Y-77100000D02*
X73800000Y-77100000D01*
X74300000Y-79000000D02*
X73800000Y-79000000D01*
X73800000Y-78900000D02*
X74300000Y-78900000D01*
X73800000Y-79100000D02*
X73800000Y-78900000D01*
X74300000Y-79100000D02*
X73800000Y-79100000D01*
X72800000Y-69940000D02*
X72800000Y-70550000D01*
X71500000Y-69940000D02*
X71500000Y-70550000D01*
X72800000Y-82060000D02*
X72800000Y-81450000D01*
X71500000Y-82060000D02*
X71500000Y-81450000D01*
X70800000Y-72500000D02*
X70190000Y-72500000D01*
X70800000Y-70550000D02*
X70800000Y-72500000D01*
X74300000Y-70550000D02*
X70800000Y-70550000D01*
X74300000Y-81450000D02*
X74300000Y-70550000D01*
X70800000Y-81450000D02*
X74300000Y-81450000D01*
X70800000Y-79500000D02*
X70800000Y-81450000D01*
X70190000Y-79500000D02*
X70800000Y-79500000D01*
X70090000Y-80300000D02*
X70090000Y-80600000D01*
X69990000Y-80600000D02*
X70190000Y-80600000D01*
X69990000Y-80300000D02*
X69990000Y-80600000D01*
X70190000Y-80300000D02*
X69990000Y-80300000D01*
X70190000Y-69940000D02*
X70190000Y-82060000D01*
X74910000Y-69940000D02*
X70190000Y-69940000D01*
X74910000Y-82060000D02*
X74910000Y-69940000D01*
X70190000Y-82060000D02*
X74910000Y-82060000D01*
%TO.C,J5*%
X88602000Y-60650000D02*
X87352000Y-60650000D01*
X88602000Y-61900000D02*
X88602000Y-60650000D01*
X83102000Y-75300000D02*
X83102000Y-68500000D01*
X86052000Y-75300000D02*
X83102000Y-75300000D01*
X86052000Y-76050000D02*
X86052000Y-75300000D01*
X83102000Y-61700000D02*
X83102000Y-68500000D01*
X86052000Y-61700000D02*
X83102000Y-61700000D01*
X86052000Y-60950000D02*
X86052000Y-61700000D01*
X88302000Y-76050000D02*
X88302000Y-74250000D01*
X87552000Y-76050000D02*
X88302000Y-76050000D01*
X87552000Y-74250000D02*
X87552000Y-76050000D01*
X88302000Y-74250000D02*
X87552000Y-74250000D01*
X88302000Y-62750000D02*
X88302000Y-60950000D01*
X87552000Y-62750000D02*
X88302000Y-62750000D01*
X87552000Y-60950000D02*
X87552000Y-62750000D01*
X88302000Y-60950000D02*
X87552000Y-60950000D01*
X88302000Y-72750000D02*
X88302000Y-64250000D01*
X87552000Y-72750000D02*
X88302000Y-72750000D01*
X87552000Y-64250000D02*
X87552000Y-72750000D01*
X88302000Y-64250000D02*
X87552000Y-64250000D01*
X88312000Y-76060000D02*
X88312000Y-60940000D01*
X82342000Y-76060000D02*
X88312000Y-76060000D01*
X82342000Y-60940000D02*
X82342000Y-76060000D01*
X88312000Y-60940000D02*
X82342000Y-60940000D01*
%TO.C,J6*%
X70190000Y-96560000D02*
X74910000Y-96560000D01*
X74910000Y-96560000D02*
X74910000Y-84440000D01*
X74910000Y-84440000D02*
X70190000Y-84440000D01*
X70190000Y-84440000D02*
X70190000Y-96560000D01*
X70190000Y-94800000D02*
X69990000Y-94800000D01*
X69990000Y-94800000D02*
X69990000Y-95100000D01*
X69990000Y-95100000D02*
X70190000Y-95100000D01*
X70090000Y-94800000D02*
X70090000Y-95100000D01*
X70190000Y-94000000D02*
X70800000Y-94000000D01*
X70800000Y-94000000D02*
X70800000Y-95950000D01*
X70800000Y-95950000D02*
X74300000Y-95950000D01*
X74300000Y-95950000D02*
X74300000Y-85050000D01*
X74300000Y-85050000D02*
X70800000Y-85050000D01*
X70800000Y-85050000D02*
X70800000Y-87000000D01*
X70800000Y-87000000D02*
X70190000Y-87000000D01*
X71500000Y-96560000D02*
X71500000Y-95950000D01*
X72800000Y-96560000D02*
X72800000Y-95950000D01*
X71500000Y-84440000D02*
X71500000Y-85050000D01*
X72800000Y-84440000D02*
X72800000Y-85050000D01*
X74300000Y-93600000D02*
X73800000Y-93600000D01*
X73800000Y-93600000D02*
X73800000Y-93400000D01*
X73800000Y-93400000D02*
X74300000Y-93400000D01*
X74300000Y-93500000D02*
X73800000Y-93500000D01*
X74300000Y-91600000D02*
X73800000Y-91600000D01*
X73800000Y-91600000D02*
X73800000Y-91400000D01*
X73800000Y-91400000D02*
X74300000Y-91400000D01*
X74300000Y-91500000D02*
X73800000Y-91500000D01*
X74300000Y-89600000D02*
X73800000Y-89600000D01*
X73800000Y-89600000D02*
X73800000Y-89400000D01*
X73800000Y-89400000D02*
X74300000Y-89400000D01*
X74300000Y-89500000D02*
X73800000Y-89500000D01*
X74300000Y-87600000D02*
X73800000Y-87600000D01*
X73800000Y-87600000D02*
X73800000Y-87400000D01*
X73800000Y-87400000D02*
X74300000Y-87400000D01*
X74300000Y-87500000D02*
X73800000Y-87500000D01*
X69890000Y-95610000D02*
X69890000Y-96860000D01*
X69890000Y-96860000D02*
X71140000Y-96860000D01*
%TO.C,J7*%
X69890000Y-111360000D02*
X71140000Y-111360000D01*
X69890000Y-110110000D02*
X69890000Y-111360000D01*
X74300000Y-102000000D02*
X73800000Y-102000000D01*
X73800000Y-101900000D02*
X74300000Y-101900000D01*
X73800000Y-102100000D02*
X73800000Y-101900000D01*
X74300000Y-102100000D02*
X73800000Y-102100000D01*
X74300000Y-104000000D02*
X73800000Y-104000000D01*
X73800000Y-103900000D02*
X74300000Y-103900000D01*
X73800000Y-104100000D02*
X73800000Y-103900000D01*
X74300000Y-104100000D02*
X73800000Y-104100000D01*
X74300000Y-106000000D02*
X73800000Y-106000000D01*
X73800000Y-105900000D02*
X74300000Y-105900000D01*
X73800000Y-106100000D02*
X73800000Y-105900000D01*
X74300000Y-106100000D02*
X73800000Y-106100000D01*
X74300000Y-108000000D02*
X73800000Y-108000000D01*
X73800000Y-107900000D02*
X74300000Y-107900000D01*
X73800000Y-108100000D02*
X73800000Y-107900000D01*
X74300000Y-108100000D02*
X73800000Y-108100000D01*
X72800000Y-98940000D02*
X72800000Y-99550000D01*
X71500000Y-98940000D02*
X71500000Y-99550000D01*
X72800000Y-111060000D02*
X72800000Y-110450000D01*
X71500000Y-111060000D02*
X71500000Y-110450000D01*
X70800000Y-101500000D02*
X70190000Y-101500000D01*
X70800000Y-99550000D02*
X70800000Y-101500000D01*
X74300000Y-99550000D02*
X70800000Y-99550000D01*
X74300000Y-110450000D02*
X74300000Y-99550000D01*
X70800000Y-110450000D02*
X74300000Y-110450000D01*
X70800000Y-108500000D02*
X70800000Y-110450000D01*
X70190000Y-108500000D02*
X70800000Y-108500000D01*
X70090000Y-109300000D02*
X70090000Y-109600000D01*
X69990000Y-109600000D02*
X70190000Y-109600000D01*
X69990000Y-109300000D02*
X69990000Y-109600000D01*
X70190000Y-109300000D02*
X69990000Y-109300000D01*
X70190000Y-98940000D02*
X70190000Y-111060000D01*
X74910000Y-98940000D02*
X70190000Y-98940000D01*
X74910000Y-111060000D02*
X74910000Y-98940000D01*
X70190000Y-111060000D02*
X74910000Y-111060000D01*
%TO.C,R1*%
X84998779Y-77214000D02*
X84673221Y-77214000D01*
X84998779Y-78234000D02*
X84673221Y-78234000D01*
%TO.C,REF\u002A\u002A*%
D12*
X93666666Y-105252380D02*
X93333333Y-104776190D01*
X93095238Y-105252380D02*
X93095238Y-104252380D01*
X93476190Y-104252380D01*
X93571428Y-104300000D01*
X93619047Y-104347619D01*
X93666666Y-104442857D01*
X93666666Y-104585714D01*
X93619047Y-104680952D01*
X93571428Y-104728571D01*
X93476190Y-104776190D01*
X93095238Y-104776190D01*
X94095238Y-104728571D02*
X94428571Y-104728571D01*
X94571428Y-105252380D02*
X94095238Y-105252380D01*
X94095238Y-104252380D01*
X94571428Y-104252380D01*
X95333333Y-104728571D02*
X95000000Y-104728571D01*
X95000000Y-105252380D02*
X95000000Y-104252380D01*
X95476190Y-104252380D01*
X96000000Y-104252380D02*
X96000000Y-104490476D01*
X95761904Y-104395238D02*
X96000000Y-104490476D01*
X96238095Y-104395238D01*
X95857142Y-104680952D02*
X96000000Y-104490476D01*
X96142857Y-104680952D01*
X96761904Y-104252380D02*
X96761904Y-104490476D01*
X96523809Y-104395238D02*
X96761904Y-104490476D01*
X97000000Y-104395238D01*
X96619047Y-104680952D02*
X96761904Y-104490476D01*
X96904761Y-104680952D01*
X93666666Y-54252380D02*
X93333333Y-53776190D01*
X93095238Y-54252380D02*
X93095238Y-53252380D01*
X93476190Y-53252380D01*
X93571428Y-53300000D01*
X93619047Y-53347619D01*
X93666666Y-53442857D01*
X93666666Y-53585714D01*
X93619047Y-53680952D01*
X93571428Y-53728571D01*
X93476190Y-53776190D01*
X93095238Y-53776190D01*
X94095238Y-53728571D02*
X94428571Y-53728571D01*
X94571428Y-54252380D02*
X94095238Y-54252380D01*
X94095238Y-53252380D01*
X94571428Y-53252380D01*
X95333333Y-53728571D02*
X95000000Y-53728571D01*
X95000000Y-54252380D02*
X95000000Y-53252380D01*
X95476190Y-53252380D01*
X96000000Y-53252380D02*
X96000000Y-53490476D01*
X95761904Y-53395238D02*
X96000000Y-53490476D01*
X96238095Y-53395238D01*
X95857142Y-53680952D02*
X96000000Y-53490476D01*
X96142857Y-53680952D01*
X96761904Y-53252380D02*
X96761904Y-53490476D01*
X96523809Y-53395238D02*
X96761904Y-53490476D01*
X97000000Y-53395238D01*
X96619047Y-53680952D02*
X96761904Y-53490476D01*
X96904761Y-53680952D01*
%TO.C,C3*%
X92289333Y-78589142D02*
X92241714Y-78636761D01*
X92098857Y-78684380D01*
X92003619Y-78684380D01*
X91860761Y-78636761D01*
X91765523Y-78541523D01*
X91717904Y-78446285D01*
X91670285Y-78255809D01*
X91670285Y-78112952D01*
X91717904Y-77922476D01*
X91765523Y-77827238D01*
X91860761Y-77732000D01*
X92003619Y-77684380D01*
X92098857Y-77684380D01*
X92241714Y-77732000D01*
X92289333Y-77779619D01*
X92622666Y-77684380D02*
X93241714Y-77684380D01*
X92908380Y-78065333D01*
X93051238Y-78065333D01*
X93146476Y-78112952D01*
X93194095Y-78160571D01*
X93241714Y-78255809D01*
X93241714Y-78493904D01*
X93194095Y-78589142D01*
X93146476Y-78636761D01*
X93051238Y-78684380D01*
X92765523Y-78684380D01*
X92670285Y-78636761D01*
X92622666Y-78589142D01*
%TO.C,IC1*%
D13*
X77500238Y-64582523D02*
X77500238Y-63312523D01*
X78830714Y-64461571D02*
X78770238Y-64522047D01*
X78588809Y-64582523D01*
X78467857Y-64582523D01*
X78286428Y-64522047D01*
X78165476Y-64401095D01*
X78105000Y-64280142D01*
X78044523Y-64038238D01*
X78044523Y-63856809D01*
X78105000Y-63614904D01*
X78165476Y-63493952D01*
X78286428Y-63373000D01*
X78467857Y-63312523D01*
X78588809Y-63312523D01*
X78770238Y-63373000D01*
X78830714Y-63433476D01*
X80040238Y-64582523D02*
X79314523Y-64582523D01*
X79677380Y-64582523D02*
X79677380Y-63312523D01*
X79556428Y-63493952D01*
X79435476Y-63614904D01*
X79314523Y-63675380D01*
%TO.C,IC2*%
X77260238Y-93538523D02*
X77260238Y-92268523D01*
X78590714Y-93417571D02*
X78530238Y-93478047D01*
X78348809Y-93538523D01*
X78227857Y-93538523D01*
X78046428Y-93478047D01*
X77925476Y-93357095D01*
X77865000Y-93236142D01*
X77804523Y-92994238D01*
X77804523Y-92812809D01*
X77865000Y-92570904D01*
X77925476Y-92449952D01*
X78046428Y-92329000D01*
X78227857Y-92268523D01*
X78348809Y-92268523D01*
X78530238Y-92329000D01*
X78590714Y-92389476D01*
X79074523Y-92389476D02*
X79135000Y-92329000D01*
X79255952Y-92268523D01*
X79558333Y-92268523D01*
X79679285Y-92329000D01*
X79739761Y-92389476D01*
X79800238Y-92510428D01*
X79800238Y-92631380D01*
X79739761Y-92812809D01*
X79014047Y-93538523D01*
X79800238Y-93538523D01*
%TO.C,IC3*%
X87260238Y-83574523D02*
X87260238Y-82304523D01*
X88590714Y-83453571D02*
X88530238Y-83514047D01*
X88348809Y-83574523D01*
X88227857Y-83574523D01*
X88046428Y-83514047D01*
X87925476Y-83393095D01*
X87865000Y-83272142D01*
X87804523Y-83030238D01*
X87804523Y-82848809D01*
X87865000Y-82606904D01*
X87925476Y-82485952D01*
X88046428Y-82365000D01*
X88227857Y-82304523D01*
X88348809Y-82304523D01*
X88530238Y-82365000D01*
X88590714Y-82425476D01*
X89014047Y-82304523D02*
X89800238Y-82304523D01*
X89376904Y-82788333D01*
X89558333Y-82788333D01*
X89679285Y-82848809D01*
X89739761Y-82909285D01*
X89800238Y-83030238D01*
X89800238Y-83332619D01*
X89739761Y-83453571D01*
X89679285Y-83514047D01*
X89558333Y-83574523D01*
X89195476Y-83574523D01*
X89074523Y-83514047D01*
X89014047Y-83453571D01*
%TO.C,IC4*%
X77260238Y-78806523D02*
X77260238Y-77536523D01*
X78590714Y-78685571D02*
X78530238Y-78746047D01*
X78348809Y-78806523D01*
X78227857Y-78806523D01*
X78046428Y-78746047D01*
X77925476Y-78625095D01*
X77865000Y-78504142D01*
X77804523Y-78262238D01*
X77804523Y-78080809D01*
X77865000Y-77838904D01*
X77925476Y-77717952D01*
X78046428Y-77597000D01*
X78227857Y-77536523D01*
X78348809Y-77536523D01*
X78530238Y-77597000D01*
X78590714Y-77657476D01*
X79679285Y-77959857D02*
X79679285Y-78806523D01*
X79376904Y-77476047D02*
X79074523Y-78383190D01*
X79860714Y-78383190D01*
%TO.C,IC5*%
X77500238Y-107762523D02*
X77500238Y-106492523D01*
X78830714Y-107641571D02*
X78770238Y-107702047D01*
X78588809Y-107762523D01*
X78467857Y-107762523D01*
X78286428Y-107702047D01*
X78165476Y-107581095D01*
X78105000Y-107460142D01*
X78044523Y-107218238D01*
X78044523Y-107036809D01*
X78105000Y-106794904D01*
X78165476Y-106673952D01*
X78286428Y-106553000D01*
X78467857Y-106492523D01*
X78588809Y-106492523D01*
X78770238Y-106553000D01*
X78830714Y-106613476D01*
X79979761Y-106492523D02*
X79375000Y-106492523D01*
X79314523Y-107097285D01*
X79375000Y-107036809D01*
X79495952Y-106976333D01*
X79798333Y-106976333D01*
X79919285Y-107036809D01*
X79979761Y-107097285D01*
X80040238Y-107218238D01*
X80040238Y-107520619D01*
X79979761Y-107641571D01*
X79919285Y-107702047D01*
X79798333Y-107762523D01*
X79495952Y-107762523D01*
X79375000Y-107702047D01*
X79314523Y-107641571D01*
%TO.C,J1*%
D12*
X68552380Y-61833333D02*
X69266666Y-61833333D01*
X69409523Y-61880952D01*
X69504761Y-61976190D01*
X69552380Y-62119047D01*
X69552380Y-62214285D01*
X69552380Y-60833333D02*
X69552380Y-61404761D01*
X69552380Y-61119047D02*
X68552380Y-61119047D01*
X68695238Y-61214285D01*
X68790476Y-61309523D01*
X68838095Y-61404761D01*
%TO.C,J2*%
X88358380Y-70751333D02*
X89072666Y-70751333D01*
X89215523Y-70798952D01*
X89310761Y-70894190D01*
X89358380Y-71037047D01*
X89358380Y-71132285D01*
X88453619Y-70322761D02*
X88406000Y-70275142D01*
X88358380Y-70179904D01*
X88358380Y-69941809D01*
X88406000Y-69846571D01*
X88453619Y-69798952D01*
X88548857Y-69751333D01*
X88644095Y-69751333D01*
X88786952Y-69798952D01*
X89358380Y-70370380D01*
X89358380Y-69751333D01*
%TO.C,J3*%
X78914666Y-75950380D02*
X78914666Y-76664666D01*
X78867047Y-76807523D01*
X78771809Y-76902761D01*
X78628952Y-76950380D01*
X78533714Y-76950380D01*
X79295619Y-75950380D02*
X79914666Y-75950380D01*
X79581333Y-76331333D01*
X79724190Y-76331333D01*
X79819428Y-76378952D01*
X79867047Y-76426571D01*
X79914666Y-76521809D01*
X79914666Y-76759904D01*
X79867047Y-76855142D01*
X79819428Y-76902761D01*
X79724190Y-76950380D01*
X79438476Y-76950380D01*
X79343238Y-76902761D01*
X79295619Y-76855142D01*
%TO.C,J4*%
X68552380Y-76333333D02*
X69266666Y-76333333D01*
X69409523Y-76380952D01*
X69504761Y-76476190D01*
X69552380Y-76619047D01*
X69552380Y-76714285D01*
X68885714Y-75428571D02*
X69552380Y-75428571D01*
X68504761Y-75666666D02*
X69219047Y-75904761D01*
X69219047Y-75285714D01*
%TO.C,J5*%
X88854380Y-68833333D02*
X89568666Y-68833333D01*
X89711523Y-68880952D01*
X89806761Y-68976190D01*
X89854380Y-69119047D01*
X89854380Y-69214285D01*
X88854380Y-67880952D02*
X88854380Y-68357142D01*
X89330571Y-68404761D01*
X89282952Y-68357142D01*
X89235333Y-68261904D01*
X89235333Y-68023809D01*
X89282952Y-67928571D01*
X89330571Y-67880952D01*
X89425809Y-67833333D01*
X89663904Y-67833333D01*
X89759142Y-67880952D01*
X89806761Y-67928571D01*
X89854380Y-68023809D01*
X89854380Y-68261904D01*
X89806761Y-68357142D01*
X89759142Y-68404761D01*
%TO.C,J6*%
X68552380Y-90833333D02*
X69266666Y-90833333D01*
X69409523Y-90880952D01*
X69504761Y-90976190D01*
X69552380Y-91119047D01*
X69552380Y-91214285D01*
X68552380Y-89928571D02*
X68552380Y-90119047D01*
X68600000Y-90214285D01*
X68647619Y-90261904D01*
X68790476Y-90357142D01*
X68980952Y-90404761D01*
X69361904Y-90404761D01*
X69457142Y-90357142D01*
X69504761Y-90309523D01*
X69552380Y-90214285D01*
X69552380Y-90023809D01*
X69504761Y-89928571D01*
X69457142Y-89880952D01*
X69361904Y-89833333D01*
X69123809Y-89833333D01*
X69028571Y-89880952D01*
X68980952Y-89928571D01*
X68933333Y-90023809D01*
X68933333Y-90214285D01*
X68980952Y-90309523D01*
X69028571Y-90357142D01*
X69123809Y-90404761D01*
%TO.C,J7*%
X68552380Y-105333333D02*
X69266666Y-105333333D01*
X69409523Y-105380952D01*
X69504761Y-105476190D01*
X69552380Y-105619047D01*
X69552380Y-105714285D01*
X68552380Y-104952380D02*
X68552380Y-104285714D01*
X69552380Y-104714285D01*
%TO.C,R1*%
X87209333Y-78176380D02*
X86876000Y-77700190D01*
X86637904Y-78176380D02*
X86637904Y-77176380D01*
X87018857Y-77176380D01*
X87114095Y-77224000D01*
X87161714Y-77271619D01*
X87209333Y-77366857D01*
X87209333Y-77509714D01*
X87161714Y-77604952D01*
X87114095Y-77652571D01*
X87018857Y-77700190D01*
X86637904Y-77700190D01*
X88161714Y-78176380D02*
X87590285Y-78176380D01*
X87876000Y-78176380D02*
X87876000Y-77176380D01*
X87780761Y-77319238D01*
X87685523Y-77414476D01*
X87590285Y-77462095D01*
%TD*%
M02*
