%TF.GenerationSoftware,KiCad,Pcbnew,(5.1.6)-1*%
%TF.CreationDate,2020-11-23T19:09:11+09:00*%
%TF.ProjectId,HARP-Motor-Ctrl-Board,48415250-2d4d-46f7-946f-722d4374726c,rev?*%
%TF.SameCoordinates,Original*%
%TF.FileFunction,Soldermask,Bot*%
%TF.FilePolarity,Negative*%
%FSLAX46Y46*%
G04 Gerber Fmt 4.6, Leading zero omitted, Abs format (unit mm)*
G04 Created by KiCad (PCBNEW (5.1.6)-1) date 2020-11-23 19:09:11*
%MOMM*%
%LPD*%
G01*
G04 APERTURE LIST*
%ADD10C,3.300000*%
%ADD11O,1.850000X1.300000*%
%ADD12O,2.050000X1.800000*%
%ADD13R,1.800000X1.800000*%
%ADD14O,1.800000X1.800000*%
G04 APERTURE END LIST*
D10*
%TO.C,REF\u002A\u002A*%
X88000000Y-97000000D03*
%TD*%
%TO.C,REF\u002A\u002A*%
X95000000Y-109000000D03*
%TD*%
%TO.C,REF\u002A\u002A*%
X95000000Y-58000000D03*
%TD*%
%TO.C,C1*%
G36*
G01*
X82558500Y-81573000D02*
X82033500Y-81573000D01*
G75*
G02*
X81771000Y-81310500I0J262500D01*
G01*
X81771000Y-80685500D01*
G75*
G02*
X82033500Y-80423000I262500J0D01*
G01*
X82558500Y-80423000D01*
G75*
G02*
X82821000Y-80685500I0J-262500D01*
G01*
X82821000Y-81310500D01*
G75*
G02*
X82558500Y-81573000I-262500J0D01*
G01*
G37*
G36*
G01*
X82558500Y-79823000D02*
X82033500Y-79823000D01*
G75*
G02*
X81771000Y-79560500I0J262500D01*
G01*
X81771000Y-78935500D01*
G75*
G02*
X82033500Y-78673000I262500J0D01*
G01*
X82558500Y-78673000D01*
G75*
G02*
X82821000Y-78935500I0J-262500D01*
G01*
X82821000Y-79560500D01*
G75*
G02*
X82558500Y-79823000I-262500J0D01*
G01*
G37*
%TD*%
%TO.C,C2*%
G36*
G01*
X84082500Y-79823000D02*
X83557500Y-79823000D01*
G75*
G02*
X83295000Y-79560500I0J262500D01*
G01*
X83295000Y-78935500D01*
G75*
G02*
X83557500Y-78673000I262500J0D01*
G01*
X84082500Y-78673000D01*
G75*
G02*
X84345000Y-78935500I0J-262500D01*
G01*
X84345000Y-79560500D01*
G75*
G02*
X84082500Y-79823000I-262500J0D01*
G01*
G37*
G36*
G01*
X84082500Y-81573000D02*
X83557500Y-81573000D01*
G75*
G02*
X83295000Y-81310500I0J262500D01*
G01*
X83295000Y-80685500D01*
G75*
G02*
X83557500Y-80423000I262500J0D01*
G01*
X84082500Y-80423000D01*
G75*
G02*
X84345000Y-80685500I0J-262500D01*
G01*
X84345000Y-81310500D01*
G75*
G02*
X84082500Y-81573000I-262500J0D01*
G01*
G37*
%TD*%
%TO.C,C4*%
G36*
G01*
X89145500Y-81354000D02*
X89670500Y-81354000D01*
G75*
G02*
X89933000Y-81616500I0J-262500D01*
G01*
X89933000Y-82241500D01*
G75*
G02*
X89670500Y-82504000I-262500J0D01*
G01*
X89145500Y-82504000D01*
G75*
G02*
X88883000Y-82241500I0J262500D01*
G01*
X88883000Y-81616500D01*
G75*
G02*
X89145500Y-81354000I262500J0D01*
G01*
G37*
G36*
G01*
X89145500Y-83104000D02*
X89670500Y-83104000D01*
G75*
G02*
X89933000Y-83366500I0J-262500D01*
G01*
X89933000Y-83991500D01*
G75*
G02*
X89670500Y-84254000I-262500J0D01*
G01*
X89145500Y-84254000D01*
G75*
G02*
X88883000Y-83991500I0J262500D01*
G01*
X88883000Y-83366500D01*
G75*
G02*
X89145500Y-83104000I262500J0D01*
G01*
G37*
%TD*%
%TO.C,C5*%
G36*
G01*
X87621500Y-83104000D02*
X88146500Y-83104000D01*
G75*
G02*
X88409000Y-83366500I0J-262500D01*
G01*
X88409000Y-83991500D01*
G75*
G02*
X88146500Y-84254000I-262500J0D01*
G01*
X87621500Y-84254000D01*
G75*
G02*
X87359000Y-83991500I0J262500D01*
G01*
X87359000Y-83366500D01*
G75*
G02*
X87621500Y-83104000I262500J0D01*
G01*
G37*
G36*
G01*
X87621500Y-81354000D02*
X88146500Y-81354000D01*
G75*
G02*
X88409000Y-81616500I0J-262500D01*
G01*
X88409000Y-82241500D01*
G75*
G02*
X88146500Y-82504000I-262500J0D01*
G01*
X87621500Y-82504000D01*
G75*
G02*
X87359000Y-82241500I0J262500D01*
G01*
X87359000Y-81616500D01*
G75*
G02*
X87621500Y-81354000I262500J0D01*
G01*
G37*
%TD*%
D11*
%TO.C,J1*%
X72000000Y-57500000D03*
X72000000Y-59500000D03*
X72000000Y-61500000D03*
X72000000Y-63500000D03*
G36*
G01*
X72654168Y-66150000D02*
X71345832Y-66150000D01*
G75*
G02*
X71075000Y-65879168I0J270832D01*
G01*
X71075000Y-65120832D01*
G75*
G02*
X71345832Y-64850000I270832J0D01*
G01*
X72654168Y-64850000D01*
G75*
G02*
X72925000Y-65120832I0J-270832D01*
G01*
X72925000Y-65879168D01*
G75*
G02*
X72654168Y-66150000I-270832J0D01*
G01*
G37*
%TD*%
%TO.C,J2*%
G36*
G01*
X93216294Y-75068000D02*
X91695706Y-75068000D01*
G75*
G02*
X91431000Y-74803294I0J264706D01*
G01*
X91431000Y-73532706D01*
G75*
G02*
X91695706Y-73268000I264706J0D01*
G01*
X93216294Y-73268000D01*
G75*
G02*
X93481000Y-73532706I0J-264706D01*
G01*
X93481000Y-74803294D01*
G75*
G02*
X93216294Y-75068000I-264706J0D01*
G01*
G37*
D12*
X92456000Y-71668000D03*
X92456000Y-69168000D03*
X92456000Y-66668000D03*
%TD*%
D13*
%TO.C,J3*%
X79248000Y-74168000D03*
D14*
X79248000Y-71628000D03*
%TD*%
%TO.C,J4*%
G36*
G01*
X72654168Y-80650000D02*
X71345832Y-80650000D01*
G75*
G02*
X71075000Y-80379168I0J270832D01*
G01*
X71075000Y-79620832D01*
G75*
G02*
X71345832Y-79350000I270832J0D01*
G01*
X72654168Y-79350000D01*
G75*
G02*
X72925000Y-79620832I0J-270832D01*
G01*
X72925000Y-80379168D01*
G75*
G02*
X72654168Y-80650000I-270832J0D01*
G01*
G37*
D11*
X72000000Y-78000000D03*
X72000000Y-76000000D03*
X72000000Y-74000000D03*
X72000000Y-72000000D03*
%TD*%
%TO.C,J5*%
G36*
G01*
X85091706Y-62600000D02*
X86612294Y-62600000D01*
G75*
G02*
X86877000Y-62864706I0J-264706D01*
G01*
X86877000Y-64135294D01*
G75*
G02*
X86612294Y-64400000I-264706J0D01*
G01*
X85091706Y-64400000D01*
G75*
G02*
X84827000Y-64135294I0J264706D01*
G01*
X84827000Y-62864706D01*
G75*
G02*
X85091706Y-62600000I264706J0D01*
G01*
G37*
D12*
X85852000Y-66000000D03*
X85852000Y-68500000D03*
X85852000Y-71000000D03*
X85852000Y-73500000D03*
%TD*%
D11*
%TO.C,J6*%
X72000000Y-86500000D03*
X72000000Y-88500000D03*
X72000000Y-90500000D03*
X72000000Y-92500000D03*
G36*
G01*
X72654168Y-95150000D02*
X71345832Y-95150000D01*
G75*
G02*
X71075000Y-94879168I0J270832D01*
G01*
X71075000Y-94120832D01*
G75*
G02*
X71345832Y-93850000I270832J0D01*
G01*
X72654168Y-93850000D01*
G75*
G02*
X72925000Y-94120832I0J-270832D01*
G01*
X72925000Y-94879168D01*
G75*
G02*
X72654168Y-95150000I-270832J0D01*
G01*
G37*
%TD*%
%TO.C,J7*%
G36*
G01*
X72654168Y-109650000D02*
X71345832Y-109650000D01*
G75*
G02*
X71075000Y-109379168I0J270832D01*
G01*
X71075000Y-108620832D01*
G75*
G02*
X71345832Y-108350000I270832J0D01*
G01*
X72654168Y-108350000D01*
G75*
G02*
X72925000Y-108620832I0J-270832D01*
G01*
X72925000Y-109379168D01*
G75*
G02*
X72654168Y-109650000I-270832J0D01*
G01*
G37*
X72000000Y-107000000D03*
X72000000Y-105000000D03*
X72000000Y-103000000D03*
X72000000Y-101000000D03*
%TD*%
M02*
