M48
; DRILL file {KiCad (5.1.6)-1} date 11/23/20 19:54:08
; FORMAT={-:-/ absolute / metric / decimal}
; #@! TF.CreationDate,2020-11-23T19:54:08+09:00
; #@! TF.GenerationSoftware,Kicad,Pcbnew,(5.1.6)-1
FMAT,2
METRIC
T1C0.400
T2C0.750
T3C0.950
T4C1.000
T5C3.200
%
G90
G05
T1
X77.216Y-75.244
X77.216Y-82.804
X77.216Y-89.744
X77.216Y-97.536
X77.216Y-104.244
X77.216Y-111.76
X81.0Y-65.5
X81.0Y-79.5
X81.0Y-94.5
X81.0Y-109.0
X81.032Y-69.604
X81.032Y-76.2
X81.032Y-90.424
X81.591Y-105.156
X82.544Y-76.2
X82.804Y-77.724
X83.102Y-90.424
X83.102Y-105.156
X83.82Y-60.452
X83.82Y-62.484
X83.987Y-82.129
X86.868Y-76.956
X86.868Y-84.836
X89.408Y-85.344
X91.948Y-78.232
X92.767Y-89.408
X92.964Y-79.756
X93.275Y-78.232
X93.275Y-80.656
X93.275Y-81.609
X93.275Y-82.561
X94.278Y-87.884
X94.786Y-79.756
T2
X72.0Y-101.0
X72.0Y-103.0
X72.0Y-105.0
X72.0Y-107.0
X72.0Y-109.0
X72.0Y-72.0
X72.0Y-74.0
X72.0Y-76.0
X72.0Y-78.0
X72.0Y-80.0
X72.0Y-86.5
X72.0Y-88.5
X72.0Y-90.5
X72.0Y-92.5
X72.0Y-94.5
X72.0Y-57.5
X72.0Y-59.5
X72.0Y-61.5
X72.0Y-63.5
X72.0Y-65.5
T3
X85.852Y-63.5
X85.852Y-66.0
X85.852Y-68.5
X85.852Y-71.0
X85.852Y-73.5
X92.456Y-66.668
X92.456Y-69.168
X92.456Y-71.668
X92.456Y-74.168
T4
X79.248Y-71.628
X79.248Y-74.168
T5
X95.0Y-109.0
X95.0Y-58.0
T0
M30
